<svg version="1.0" xmlns="http://www.w3.org/2000/svg"
 width="613.000000pt" height="613.000000pt" viewBox="0 0 613.000000 613.000000"
 preserveAspectRatio="xMidYMid meet">
<g transform="translate(0.000000,613.000000) scale(0.100000,-0.100000)"
fill="#000000" stroke="none">
<path d="M2495 6086 c-504 -97 -931 -289 -1320 -593 -570 -446 -965 -1081
-1117 -1797 -26 -124 -31 -172 -39 -396 -5 -151 -5 -352 0 -495 10 -260 32
-397 100 -626 180 -603 558 -1161 1046 -1542 366 -286 785 -480 1249 -579 126
-26 170 -31 409 -39 372 -12 692 1 857 36 164 34 336 84 485 140 120 45 438
198 463 222 7 7 20 13 28 13 8 0 14 5 14 10 0 6 7 10 15 10 8 0 15 5 15 10 0
6 7 10 15 10 8 0 15 5 15 10 0 6 7 10 15 10 8 0 15 5 15 11 0 5 5 7 10 4 6 -3
13 1 16 9 3 9 10 14 14 11 5 -3 13 3 19 12 6 10 11 14 11 10 0 -11 146 101
245 188 131 115 331 320 407 418 291 375 488 798 590 1272 l33 150 0 485 0
485 -33 150 c-59 276 -131 485 -252 730 -83 170 -231 402 -347 544 -37 46 -78
98 -89 115 -12 17 -40 48 -63 69 -22 20 -41 41 -41 45 0 4 -18 26 -40 47 -22
21 -40 37 -40 34 0 -2 -33 28 -74 68 -170 163 -448 354 -691 473 -243 119
-452 192 -729 253 l-141 31 -475 2 c-460 3 -479 2 -595 -20z m850 -106 c250
-21 591 -100 818 -190 548 -219 1029 -604 1342 -1075 173 -260 286 -503 370
-792 106 -364 120 -467 120 -853 0 -346 -10 -430 -75 -685 -102 -394 -248
-712 -473 -1029 -260 -367 -632 -687 -1057 -909 -296 -154 -618 -257 -930
-297 -228 -29 -621 -21 -850 16 -307 51 -667 177 -899 316 -290 174 -482 319
-672 508 -338 336 -605 774 -753 1237 -84 263 -120 519 -120 858 0 241 8 328
58 588 96 497 346 991 702 1389 353 394 940 736 1464 853 99 22 337 60 425 68
90 8 418 6 530 -3z"/>
<path d="M2750 5869 c-109 -10 -304 -47 -467 -89 -359 -93 -779 -322 -1095
-597 -230 -200 -450 -494 -617 -827 -123 -244 -208 -493 -256 -751 -73 -397
-55 -908 45 -1267 122 -441 407 -932 733 -1266 64 -66 385 -332 402 -335 9 -1
835 516 835 523 0 3 -65 38 -143 77 -344 174 -644 418 -857 698 -82 107 -189
275 -231 363 -79 163 -164 447 -194 650 -38 249 -28 552 26 815 108 529 311
909 685 1281 196 195 402 344 636 459 189 93 299 131 578 199 135 33 259 63
275 68 40 11 -231 10 -355 -1z m-1982 -1785 c27 -31 28 -54 1 -88 -26 -33 -73
-35 -106 -4 -38 36 -28 89 22 116 26 15 55 6 83 -24z m-110 -429 c53 -62 8
-165 -73 -165 -76 0 -123 95 -79 158 34 49 112 52 152 7z m-61 -490 c84 -24
98 -166 21 -219 -37 -26 -111 -21 -147 10 -74 62 -48 187 43 213 31 9 41 8 83
-4z m167 -564 c45 -30 66 -70 66 -126 0 -88 -57 -145 -145 -145 -88 0 -145 57
-145 145 0 88 57 145 145 145 32 0 60 -7 79 -19z m316 -603 c110 -56 132 -188
46 -274 -146 -147 -378 44 -263 217 26 39 97 79 142 79 17 0 51 -10 75 -22z
m498 -523 c84 -36 126 -106 120 -201 -3 -52 -9 -70 -34 -101 -83 -104 -224
-108 -311 -10 -36 41 -48 86 -41 158 12 120 152 201 266 154z"/>
<path d="M2515 5405 c13 -124 130 -265 293 -355 45 -25 82 -48 82 -52 0 -5
-17 -8 -37 -8 -61 0 -271 -37 -367 -65 -104 -30 -215 -80 -281 -125 -26 -18
-48 -30 -50 -28 -13 13 -26 213 -26 387 l0 204 -20 -19 c-31 -28 -123 -224
-163 -345 -37 -113 -72 -275 -82 -382 -7 -66 -9 -70 -70 -138 -194 -217 -394
-579 -515 -936 -21 -64 -25 -83 -14 -83 8 0 64 50 126 110 61 61 113 109 114
108 4 -4 -32 -139 -68 -258 -14 -47 -42 -148 -62 -225 -58 -222 -82 -296 -124
-391 -22 -49 -38 -90 -36 -92 2 -2 29 10 59 28 67 38 150 112 202 180 21 28
41 50 45 50 3 0 9 -60 11 -132 7 -170 26 -243 94 -361 30 -50 75 -132 100
-181 49 -95 163 -275 189 -296 13 -11 15 1 15 109 0 66 4 121 8 121 5 0 29
-37 54 -83 97 -172 280 -361 482 -493 119 -78 122 -85 114 -205 -5 -59 -11
-77 -46 -131 -23 -35 -58 -79 -79 -99 -74 -71 -409 -285 -753 -481 -43 -25
-98 -75 -89 -81 39 -30 188 -112 291 -162 362 -173 711 -245 1201 -246 466 -1
887 106 1292 331 70 38 133 70 141 70 47 0 -31 54 -246 170 -255 138 -583 341
-643 398 -22 21 -52 56 -68 79 -28 41 -29 45 -29 165 l1 123 41 30 c23 17 65
47 94 69 l53 38 80 -11 c263 -39 528 -216 673 -451 73 -118 148 -367 148 -492
0 -15 5 -28 10 -28 8 0 77 41 129 77 6 4 -38 197 -66 288 -14 44 -45 118 -70
165 -146 274 -345 430 -692 545 l-84 28 31 26 c44 37 163 192 217 283 26 43
50 78 55 78 22 0 19 -127 -6 -226 -4 -13 -4 -24 -1 -24 10 0 112 146 154 222
25 46 61 110 81 143 70 115 145 368 159 532 l8 92 52 -64 c55 -67 205 -195
230 -195 17 0 12 23 -22 90 -31 62 -72 194 -100 325 -13 61 -48 207 -78 325
-30 118 -53 217 -51 219 2 2 41 -32 88 -76 82 -78 175 -148 184 -138 12 12
-151 352 -301 625 -104 191 -154 270 -224 358 -45 55 -51 69 -57 125 -17 155
-117 473 -203 642 -93 185 -98 183 -90 -22 6 -158 -7 -390 -24 -407 -5 -5 -24
1 -47 16 -54 36 -165 91 -322 160 -217 96 -295 124 -465 168 -401 103 -547
174 -617 300 l-19 35 6 -50z m-430 -861 c25 -97 57 -206 71 -242 30 -76 118
-239 176 -324 45 -68 49 -114 15 -198 -26 -64 -81 -108 -146 -117 -39 -5 -44
-3 -81 36 -50 53 -106 170 -137 290 -19 74 -26 131 -30 251 -5 138 -2 180 26
379 18 124 35 230 39 235 4 6 10 -22 15 -62 4 -40 28 -152 52 -248z m2076 21
c18 -103 20 -145 16 -290 -4 -125 -11 -190 -25 -245 -41 -155 -96 -274 -156
-337 -25 -28 -37 -33 -75 -33 -56 0 -117 32 -148 78 -26 39 -48 130 -40 164 4
13 38 66 77 118 137 182 252 448 280 645 20 145 22 148 36 80 8 -33 23 -114
35 -180z m-450 -1205 c21 -47 45 -114 53 -150 16 -68 36 -230 30 -241 -2 -4
-39 -8 -82 -11 -149 -9 -257 -79 -373 -243 -56 -78 -61 -112 -17 -107 23 3 32
-6 67 -57 50 -73 91 -105 167 -132 121 -43 272 -3 360 95 47 51 77 105 109
189 18 47 28 57 80 77 l26 10 -6 -48 c-33 -259 -66 -333 -232 -519 -102 -115
-98 -135 19 -88 34 14 65 25 70 25 29 0 -126 -178 -249 -286 -104 -90 -288
-214 -385 -259 -203 -93 -420 -82 -626 31 -215 117 -506 357 -560 460 -11 21
-10 21 33 16 25 -2 45 -2 45 0 0 3 -22 33 -50 68 -56 70 -104 164 -125 248
-16 60 -20 122 -7 122 4 0 23 -30 42 -68 47 -93 151 -197 211 -212 29 -7 66
-29 103 -61 59 -50 83 -61 72 -34 -12 31 14 167 43 229 30 62 133 186 145 175
4 -4 -5 -48 -19 -98 -15 -50 -25 -96 -23 -102 6 -19 130 83 183 151 56 73 348
362 353 350 5 -15 -69 -152 -134 -249 -35 -51 -64 -98 -64 -102 0 -5 13 -9 29
-9 46 0 174 106 289 240 181 210 309 458 358 690 7 35 7 35 17 10 6 -14 27
-63 48 -110z m363 -205 c49 -131 66 -197 66 -252 0 -24 -1 -43 -3 -43 -8 0
-181 61 -197 70 -18 10 -17 14 17 88 20 42 43 114 52 160 8 45 18 82 21 82 3
0 23 -47 44 -105z m-350 -360 c60 -32 126 -89 126 -110 0 -44 -44 -108 -89
-132 -87 -45 -175 -23 -228 56 -28 42 -29 84 -3 126 42 68 128 94 194 60z
m-992 -1600 c157 -124 273 -167 396 -145 91 16 140 39 242 115 48 36 94 65
103 65 15 0 57 -74 57 -101 0 -8 -7 -27 -16 -44 -9 -16 -75 -147 -146 -290
-115 -229 -172 -333 -258 -479 l-24 -39 -19 24 c-47 58 -289 505 -411 759
l-46 95 17 53 c9 28 18 52 20 52 2 0 40 -29 85 -65z"/>
<path d="M2838 1903 c-16 -20 0 -63 28 -73 34 -13 380 -13 405 0 20 11 25 45
9 70 -8 13 -44 15 -220 15 -156 0 -214 -3 -222 -12z"/>
<path d="M4652 5122 c-61 -22 -114 -68 -145 -127 -30 -57 -30 -173 0 -231 45
-84 129 -136 223 -138 79 -1 141 26 193 84 49 54 67 103 67 181 -1 168 -177
288 -338 231z"/>
<path d="M5193 4460 c-97 -20 -187 -90 -230 -178 -37 -77 -39 -202 -4 -273 32
-68 81 -120 142 -154 50 -28 62 -30 154 -30 85 0 106 3 143 23 66 35 119 88
149 150 24 49 28 69 28 142 0 73 -4 93 -28 142 -63 128 -217 206 -354 178z"/>
<path d="M5826 3487 c-3 -14 -11 -92 -16 -174 -25 -353 -86 -636 -186 -857
-121 -270 -266 -477 -481 -686 -156 -153 -261 -237 -380 -307 -45 -26 -82 -51
-83 -54 0 -4 15 -29 33 -57 49 -72 105 -211 136 -334 14 -59 31 -108 37 -108
26 0 286 279 412 442 186 241 388 630 468 901 51 173 103 448 116 624 17 220
-8 588 -42 626 -4 5 -10 -3 -14 -16z"/>
<path d="M5212 3435 c-84 -43 -132 -122 -132 -217 1 -211 259 -317 408 -168
54 53 67 87 67 171 0 67 -3 81 -30 125 -66 106 -202 145 -313 89z"/>
<path d="M5045 2621 c-124 -58 -153 -198 -61 -299 65 -72 176 -76 253 -9 83
73 85 196 4 272 -57 55 -128 68 -196 36z"/>
<path d="M4690 1963 c-51 -18 -69 -93 -32 -126 26 -24 85 -22 107 3 47 52 -10
146 -75 123z"/>
<path d="M4320 1234 c-36 -14 -119 -41 -185 -60 -66 -19 -127 -37 -135 -40 -9
-3 16 -22 65 -47 162 -86 420 -230 436 -243 44 -39 50 4 18 129 -22 90 -108
287 -124 286 -5 0 -39 -11 -75 -25z"/>
</g>
</svg>
